<svg xmlns="http://www.w3.org/2000/svg" viewBox="200 35 520 130" width="64" height="64">
  <g id="ez">
    <path fill="#3782e5" d="M234.272 159.024C224.032 159.024 216.139 155.781 210.592 149.296C205.045 142.811 202.272 133.808 202.272 122.288C202.272 115.376 203.488 109.189 205.92 103.728C208.395 98.2667 212.021 93.936 216.8 90.736C221.621 87.536 227.531 85.8933 234.528 85.808C238.112 85.7227 241.483 86.2347 244.64 87.344C247.797 88.4533 250.592 90.1387 253.024 92.4C255.456 94.6187 257.376 97.4347 258.784 100.848C260.235 104.261 261.024 108.251 261.152 112.816C261.152 115.504 261.131 117.915 261.088 120.048C261.045 122.139 260.853 123.995 260.512 125.616H210.848L212.128 116.272H247.328C247.541 112.859 247.328 109.637 246.688 106.608C246.091 103.536 244.768 101.061 242.72 99.184C240.715 97.264 237.728 96.304 233.76 96.304C230.432 96.304 227.445 97.2427 224.8 99.12C222.155 100.955 220.107 104.069 218.656 108.464C217.205 112.859 216.608 118.875 216.864 126.512C217.12 131.888 218.208 136.133 220.128 139.248C222.048 142.363 224.565 144.581 227.68 145.904C230.795 147.227 234.272 147.888 238.112 147.888C239.733 147.888 241.717 147.717 244.064 147.376C246.411 146.992 248.672 146.523 250.848 145.968C253.067 145.371 254.752 144.731 255.904 144.048L258.72 152.496C257.141 153.776 254.987 154.907 252.256 155.888C249.568 156.869 246.645 157.637 243.488 158.192C240.331 158.747 237.259 159.024 234.272 159.024ZM273.903 158L271.215 152.88L305.135 102.96L308.847 97.712H275.055V86.704H326.511L328.687 92.72L295.023 142.128L291.311 147.376H327.407V158H273.903Z"/>
  </g>
  <g id="bids">
    <path fill="#20ab5c" d="M624.3 60.797C628.944 51.341 638.841 43.618 650.251 40.545C657.477 38.599 674.719 38.613 682.276 40.571C685.611 41.436 690.869 43.419 693.96 44.98C699.926 47.991 710.012 56.404 709.982 58.343C709.972 58.979 706.675 62.498 702.655 66.163L695.345 72.826L690.923 69.279C683.311 63.174 676.63 60.662 666.718 60.18C659.991 59.852 656.872 60.159 653.384 61.491C642.955 65.474 642.191 77.428 652.04 82.52C653.614 83.335 661.337 85.827 669.201 88.06C688.349 93.496 700.763 99.5 705.397 105.568C712.516 114.893 713.984 128.205 709.022 138.455C705.941 144.819 697.97 152.406 690.606 155.982C668.355 166.79 633.417 158.711 618.825 139.385L614.793 134.045L617.647 131.646C619.216 130.326 622.905 127.25 625.844 124.81L631.189 120.374L637.344 126.506C640.73 129.878 645.991 133.85 649.035 135.331C668.609 144.856 691.837 137.846 687.866 123.612C686.115 117.333 681.701 114.871 661.724 109.03C638.231 102.16 628.88 96.515 623.91 86.204C620.437 79 620.601 68.33 624.3 60.797ZM502 99.471V158.197L527.75 157.754C550.044 157.37 554.553 157.024 561.342 155.173C573.03 151.986 581.614 147.359 588.557 140.5C599.875 129.321 605.013 116.057 604.985 98.09C604.949 74.407 595.575 58.136 576.763 49.102C564.037 42.99 557.321 41.92 527.75 41.292L502 40.746V99.471ZM555.664 64.309C575.748 70.006 584.807 85.057 581.07 106.519C577.396 127.615 563.223 136.937 534.75 136.983L524 137V102.964V68.929L519.25 66.959C513.853 64.7209 510.758 63.4794 510.878 62.83C511.033 61.989 516.58 62.1415 529.5 62.409C543.721 62.704 552.167 63.317 555.664 64.309ZM452 158V99.5V41H463H474V99.5V158H463H452ZM334 99.5V158H363.435C395.566 158 402.87 157.167 412.383 152.416C425.427 145.903 431.392 133.378 428.888 117.76C427.551 109.414 423.959 103.514 417.939 99.771L413.087 96.755L416.989 92.128C423.097 84.884 425.348 78.849 425.303 69.84C425.257 60.551 422.795 54.692 416.771 49.536C408.584 42.528 399.01 41.046 361.75 41.02L334 41V99.5ZM394.172 64.203C404.036 68.582 404.246 82.492 394.51 86.56C391.969 87.622 386.593 88 374.032 88H357V78.441V68.882L349.75 65.454L342.5 62.026L366.5 62.299C386.088 62.522 391.175 62.872 394.172 64.203ZM396 110.051C404.141 112.903 407.507 119.766 404.555 127.494C403.205 131.03 401.88 132.549 398.657 134.255C394.891 136.249 392.738 136.49 375.75 136.822L357 137.187V122.45V107.713L374.75 108.269C384.665 108.579 394.045 109.366 396 110.051Z"/>
  </g>
</svg>
